<svg xmlns="http://www.w3.org/2000/svg" width="519" height="599" viewBox="0 0 519 599">
  <defs>
    <style>
      .cls-1 {
        fill: #fff;
      }
    </style>
  </defs>
  <path id="Union_2" data-name="Union 2" class="cls-1" d="M-5009.513-1572a5,5,0,0,1-5-5v-52a5,5,0,0,1,5-5H-4926a5,5,0,0,1,5,5v52a5,5,0,0,1-5,5Zm-126.244,0a5,5,0,0,1-5-5v-52a5,5,0,0,1,5-5h92.865a5,5,0,0,1,5,5v52a5,5,0,0,1-5,5Zm-171.441,0a5,5,0,0,1-5-5v-188a5,5,0,0,1,5-5h138.063a5,5,0,0,1,5,5v188a5,5,0,0,1-5,5Zm-127.8,0a5,5,0,0,1-5-5v-188a5,5,0,0,1,5-5h94.424a5,5,0,0,1,5,5v188a5,5,0,0,1-5,5Zm299.243-92a5,5,0,0,1-5-5v-96a5,5,0,0,1,5-5H-4926a5,5,0,0,1,5,5v96a5,5,0,0,1-5,5Zm-109.1-136a5,5,0,0,1-5-5v-150a5,5,0,0,1,5-5H-4926a5,5,0,0,1,5,5v150a5,5,0,0,1-5,5ZM-5435-1800a5,5,0,0,1-5-5v-361a5,5,0,0,1,5-5h156.766a5,5,0,0,1,5,5v361a5,5,0,0,1-5,5Zm349.117-190a5,5,0,0,1-5-5v-171a5,5,0,0,1,5-5H-4926a5,5,0,0,1,5,5v171a5,5,0,0,1-5,5Zm-158.972,0a5,5,0,0,1-5-5v-171a5,5,0,0,1,5-5h125.594a5,5,0,0,1,5,5v171a5,5,0,0,1-5,5Z" transform="translate(5440 2171)"/>
</svg>
