<svg xmlns="http://www.w3.org/2000/svg" width="573" height="598" viewBox="0 0 573 598">
  <defs>
    <style>
      .cls-1 {
        fill: #fff;
      }
    </style>
  </defs>
  <path id="Union_1" data-name="Union 1" class="cls-1" d="M-2515-1573a5,5,0,0,1-5-5v-266a5,5,0,0,1,5-5h321a5,5,0,0,1,5,5v266a5,5,0,0,1-5,5Zm359-73a5,5,0,0,1-5-5v-193a5,5,0,0,1,5-5h204a5,5,0,0,1,5,5v193a5,5,0,0,1-5,5Zm0-233a5,5,0,0,1-5-5v-282a5,5,0,0,1,5-5h204a5,5,0,0,1,5,5v282a5,5,0,0,1-5,5Zm-324,0a5,5,0,0,1-5-5v-182a5,5,0,0,1,5-5h286a5,5,0,0,1,5,5v182a5,5,0,0,1-5,5Z" transform="translate(2520 2171)"/>
</svg>
